<svg xmlns="http://www.w3.org/2000/svg" viewBox="0 0 390 844" width="390" height="844" role="img">
<rect x="0" y="0" width="390" height="844" rx="0" fill="#FFFFFF" opacity="1"/>
<text x="28" y="42" font-family="Inter, system-ui, sans-serif" font-size="14" font-weight="600" fill="#0B1F14" text-anchor="start" opacity="1">9:41</text>
<rect x="300" y="32" width="18" height="11" rx="2" fill="#0B1F14" opacity="0.9"/>
<rect x="322" y="30" width="26" height="14" rx="4" fill="none" stroke="#0B1F14" stroke-width="1.5" opacity="0.6"/>
<rect x="324" y="32" width="20" height="10" rx="2" fill="#0B1F14" opacity="0.9"/>
<rect x="145" y="812" width="100" height="5" rx="2.5" fill="#0B1F14" opacity="0.35"/>
<line x1="30" y1="88" x2="44" y2="88" stroke="#0B1F14" stroke-width="2" opacity="1" stroke-linecap="round"/>
<line x1="30" y1="88" x2="36" y2="82" stroke="#0B1F14" stroke-width="2" opacity="1" stroke-linecap="round"/>
<line x1="30" y1="88" x2="36" y2="94" stroke="#0B1F14" stroke-width="2" opacity="1" stroke-linecap="round"/>
<text x="62" y="94" font-family="Inter, system-ui, sans-serif" font-size="17" font-weight="600" fill="#0B1F14" text-anchor="start" opacity="1">Fund wallet</text>
<text x="195" y="196" font-family="Inter, system-ui, sans-serif" font-size="44" font-weight="700" fill="#0B1F14" text-anchor="middle" opacity="1">₦ 5,000</text>
<text x="195" y="226" font-family="Inter, system-ui, sans-serif" font-size="12" font-weight="400" fill="#6B7A70" text-anchor="middle" opacity="1">Minimum ₦ 100</text>
<rect x="24" y="262" width="78" height="36" rx="18" fill="#F6F7F6" stroke="#E6E8E6" stroke-width="1" opacity="1"/>
<text x="63" y="285" font-family="Inter, system-ui, sans-serif" font-size="13" font-weight="600" fill="#6B7A70" text-anchor="middle" opacity="1">₦ 1,000</text>
<rect x="112" y="262" width="78" height="36" rx="18" fill="#F6F7F6" stroke="#E6E8E6" stroke-width="1" opacity="1"/>
<text x="151" y="285" font-family="Inter, system-ui, sans-serif" font-size="13" font-weight="600" fill="#6B7A70" text-anchor="middle" opacity="1">₦ 2,000</text>
<rect x="200" y="262" width="78" height="36" rx="18" fill="#16A34A" opacity="1"/>
<text x="239" y="285" font-family="Inter, system-ui, sans-serif" font-size="13" font-weight="600" fill="#FFFFFF" text-anchor="middle" opacity="1">₦ 5,000</text>
<rect x="288" y="262" width="78" height="36" rx="18" fill="#F6F7F6" stroke="#E6E8E6" stroke-width="1" opacity="1"/>
<text x="327" y="285" font-family="Inter, system-ui, sans-serif" font-size="13" font-weight="600" fill="#6B7A70" text-anchor="middle" opacity="1">₦ 10,000</text>
<text x="28" y="348" font-family="Inter, system-ui, sans-serif" font-size="15" font-weight="600" fill="#0B1F14" text-anchor="start" opacity="1">How do you want to pay?</text>
<rect x="24" y="378" width="342" height="78" rx="18" fill="#16A34A" opacity="0.1"/>
<rect x="24" y="378" width="342" height="78" rx="18" fill="none" stroke="#16A34A" stroke-width="1.5" opacity="1"/>
<rect x="48" y="400" width="34" height="34" rx="10" fill="#16A34A" opacity="0.18"/>
<text x="98" y="414" font-family="Inter, system-ui, sans-serif" font-size="15" font-weight="600" fill="#0B1F14" text-anchor="start" opacity="1">Card</text>
<text x="98" y="434" font-family="Inter, system-ui, sans-serif" font-size="11" font-weight="400" fill="#6B7A70" text-anchor="start" opacity="1">Visa, Mastercard, Verve</text>
<circle cx="336" cy="417" r="10" fill="#16A34A" opacity="1"/>
<line x1="332" y1="417" x2="335" y2="421" stroke="#FFFFFF" stroke-width="2" opacity="1" stroke-linecap="round"/>
<line x1="335" y1="421" x2="341" y2="413" stroke="#FFFFFF" stroke-width="2" opacity="1" stroke-linecap="round"/>
<rect x="24" y="470" width="342" height="78" rx="18" fill="#F6F7F6" opacity="1"/>
<rect x="48" y="492" width="34" height="34" rx="10" fill="#16A34A" opacity="0.18"/>
<text x="98" y="506" font-family="Inter, system-ui, sans-serif" font-size="15" font-weight="600" fill="#0B1F14" text-anchor="start" opacity="1">Bank transfer</text>
<text x="98" y="526" font-family="Inter, system-ui, sans-serif" font-size="11" font-weight="400" fill="#6B7A70" text-anchor="start" opacity="1">Dedicated account number</text>
<circle cx="336" cy="509" r="9" fill="none" stroke="#E6E8E6" stroke-width="1.5" opacity="1"/>
<rect x="24" y="562" width="342" height="78" rx="18" fill="#F6F7F6" opacity="1"/>
<rect x="48" y="584" width="34" height="34" rx="10" fill="#16A34A" opacity="0.18"/>
<text x="98" y="598" font-family="Inter, system-ui, sans-serif" font-size="15" font-weight="600" fill="#0B1F14" text-anchor="start" opacity="1">USSD</text>
<text x="98" y="618" font-family="Inter, system-ui, sans-serif" font-size="11" font-weight="400" fill="#6B7A70" text-anchor="start" opacity="1">Works without data</text>
<circle cx="336" cy="601" r="9" fill="none" stroke="#E6E8E6" stroke-width="1.5" opacity="1"/>
<text x="195" y="686" font-family="Inter, system-ui, sans-serif" font-size="11" font-weight="400" fill="#6B7A70" text-anchor="middle" opacity="1">Secured by Paystack · PCI-DSS</text>
<rect x="24" y="706" width="342" height="56" rx="14" fill="#16A34A" opacity="1"/>
<text x="195" y="740" font-family="Inter, system-ui, sans-serif" font-size="16" font-weight="600" fill="#FFFFFF" text-anchor="middle" opacity="1">Continue</text>
</svg>
